<svg xmlns="http://www.w3.org/2000/svg" viewBox="0 0 603 603"><defs><style>.cls-1{fill:#da121a;}.cls-2{fill:#078930;}.cls-3{fill:#c41e1e;}.cls-4{fill:#962222;}.cls-5{fill:none;}</style></defs><g id="Capa_2" data-name="Capa 2"><polygon class="cls-1" points="257 213 257 102 190.11 102 190.11 324 257 324 257 213"/><polygon class="cls-2" points="412.11 213 412.11 102 345.22 102 345.22 324 412.11 324 412.11 213"/></g><g id="Capa_1" data-name="Capa 1"><g id="Capa_2-2" data-name="Capa 2"><g id="Capa_1-2" data-name="Capa 1-2"><path class="cls-3" d="M300.94,580.12C281.82,557.73,241,508.66,200.57,452,129,351.46,91.1,273.11,91.1,225.39,91.1,109.38,185.49,15,301.5,15s210.39,94.38,210.39,210.39c0,47.71-38,126-110,226.54C361.23,508.66,320.16,557.75,300.94,580.12ZM301.11,87a126,126,0,1,0,126,126A126,126,0,0,0,301.11,87Z"/><path class="cls-4" d="M301.5,30c107.91,0,195.39,87.48,195.4,195.39,0,16.18-5.54,46.25-31.89,97.59-18,35.12-43.32,75.49-75.19,120-33.55,46.86-67.43,88.49-88.85,113.94-21.3-25.45-55-67.06-88.33-113.88C143.94,346.6,106.11,269.3,106.11,225.39,106.1,117.48,193.57,30,301.48,30h0m-.39,324c77.74,0,141-63.25,141-141s-63.25-141-141-141-141,63.25-141,141,63.25,141,141,141M301.5,0C177,0,76.11,100.91,76.11,225.39S300.92,603,300.92,603s226-253.13,226-377.61S426,0,301.5,0Zm-.39,324a111,111,0,1,1,111-111A111,111,0,0,1,301.11,324Z"/><rect class="cls-5" width="603" height="603"/></g></g></g></svg>